# Blender v2.92.0 OBJ File: 'BASEmodel.blend'
# www.blender.org
mtllib head.mtl
o head_Cube_Cube.012
v -0.011551 4.200190 -0.088856
v 0.000000 4.127866 0.077427
v 0.072431 4.196732 0.015256
v 0.000000 4.260107 -0.035184
v 0.151069 4.190795 -0.037386
v 0.095678 4.215329 -0.127776
v 0.110494 4.219110 -0.086813
v 0.000000 4.254683 -0.096985
v 0.033916 4.221588 -0.121601
v 0.038855 4.146930 0.071774
v 0.095436 4.182733 0.030336
v 0.078142 4.165995 0.066121
v 0.112049 4.198415 -0.025694
v 0.198054 4.321499 -0.025964
v 0.199105 4.322167 -0.084408
v 0.084522 4.259861 -0.106756
v 0.092419 4.257870 -0.033114
v 0.044410 4.256514 -0.102853
v 0.132576 4.664580 -0.214283
v 0.088613 4.719468 -0.206873
v 0.161984 4.700821 -0.198856
v 0.179279 4.656544 -0.208558
v 0.147444 4.424818 -0.233389
v 0.161999 4.527887 -0.248539
v 0.215979 4.523712 -0.237667
v 0.196573 4.429358 -0.221424
v 0.223429 4.417541 -0.088284
v 0.241732 4.520511 -0.092159
v 0.240962 4.514438 -0.021746
v 0.229330 4.413517 -0.023855
v 0.203788 4.682702 -0.082667
v 0.188139 4.726976 -0.079503
v 0.190701 4.737950 -0.021746
v 0.227829 4.692194 -0.021746
v 0.195185 4.677640 0.071660
v 0.181390 4.720227 0.066809
v 0.161984 4.700821 0.155363
v 0.179279 4.656544 0.165066
v 0.212973 4.405968 0.070514
v 0.227569 4.520511 0.086214
v 0.215979 4.523712 0.194175
v 0.196573 4.398545 0.164884
v 0.049187 4.336981 0.231221
v 0.054038 4.523712 0.255261
v 0.000000 4.523712 0.275623
v 0.000000 4.316460 0.253334
v 0.046761 4.678375 0.202169
v 0.044336 4.729929 0.184472
v 0.000000 4.739632 0.194175
v 0.000000 4.685652 0.214537
v 0.160798 4.240864 0.047215
v 0.145622 4.219975 0.132419
v 0.117110 4.182779 0.148701
v 0.054670 4.799282 -0.082657
v 0.000000 4.803854 -0.083709
v 0.000000 4.824968 -0.020228
v 0.057834 4.818282 -0.020607
v 0.052983 4.791281 0.081363
v 0.000000 4.802464 0.086214
v 0.038748 4.140762 0.174916
v 0.000000 4.119754 0.188024
v 0.132890 4.328200 -0.213303
v 0.177168 4.335003 -0.205182
v 0.228005 4.408161 0.023330
v 0.055409 4.807417 0.030378
v 0.000000 4.813716 0.032993
v 0.220600 4.514438 0.032234
v 0.207553 4.684917 0.024957
v 0.191092 4.729929 0.022531
v 0.146848 4.763767 0.025147
v 0.110759 4.790574 0.027762
v 0.105908 4.780097 0.076511
v 0.136057 4.746647 0.071660
v 0.044336 4.314594 -0.229546
v 0.049187 4.415737 -0.257317
v 0.098316 4.420277 -0.245353
v 0.088613 4.321397 -0.221424
v 0.147444 4.378024 0.186996
v 0.098316 4.357503 0.209109
v 0.077929 4.161771 0.161808
v 0.088613 4.720227 0.174769
v 0.144633 4.759086 -0.080554
v 0.109282 4.784166 -0.081606
v 0.115610 4.801051 -0.020987
v 0.154126 4.773857 -0.021367
v 0.132576 4.663821 0.177434
v 0.093464 4.671098 0.189801
v 0.161999 4.523712 0.214537
v 0.108018 4.523712 0.234899
v 0.054038 4.536238 -0.270284
v 0.108018 4.532063 -0.259411
v 0.046761 4.680653 -0.225733
v 0.044336 4.728791 -0.210882
v 0.093464 4.672616 -0.220008
v 0.053018 4.187368 -0.095062
v 0.000000 4.738114 -0.214891
v 0.152413 4.263542 -0.087817
v 0.039896 4.230795 0.024195
v 0.196573 4.612267 -0.218261
v 0.229531 4.640110 -0.085831
v 0.239326 4.642233 -0.021746
v 0.234107 4.641587 0.027383
v 0.049187 4.632514 -0.240583
v 0.098316 4.625765 -0.233142
v 0.147444 4.617118 0.189801
v 0.098316 4.621969 0.204834
v 0.219075 4.636736 0.076511
v 0.049187 4.626821 0.219866
v 0.000000 4.631672 0.234899
v 0.196573 4.612267 0.174769
v 0.147444 4.619016 -0.225702
v 0.000000 4.540414 -0.281156
v 0.000000 4.639264 -0.248024
v 0.000000 4.411197 -0.269281
v 0.000000 4.307791 -0.237667
v 0.000000 4.688689 -0.231457
v 0.011551 4.200190 -0.088856
v -0.072431 4.196732 0.015256
v -0.151069 4.190795 -0.037386
v -0.110494 4.219110 -0.086813
v -0.095678 4.215329 -0.127776
v -0.033916 4.221588 -0.121601
v -0.038855 4.146930 0.071774
v -0.078142 4.165995 0.066121
v -0.095436 4.182733 0.030336
v -0.198054 4.321499 -0.025964
v -0.199105 4.322167 -0.084408
v -0.084522 4.259861 -0.106756
v -0.092419 4.257870 -0.033114
v -0.044410 4.256514 -0.102853
v -0.132576 4.664580 -0.214283
v -0.179279 4.656544 -0.208558
v -0.161984 4.700821 -0.198856
v -0.088613 4.719468 -0.206873
v -0.147444 4.424818 -0.233389
v -0.196573 4.429358 -0.221424
v -0.215979 4.523712 -0.237667
v -0.161999 4.527887 -0.248539
v -0.223429 4.417541 -0.088284
v -0.229330 4.413517 -0.023855
v -0.240962 4.514438 -0.021746
v -0.241732 4.520511 -0.092159
v -0.203788 4.682702 -0.082667
v -0.227829 4.692194 -0.021746
v -0.190701 4.737950 -0.021746
v -0.188138 4.726976 -0.079503
v -0.195185 4.677640 0.071660
v -0.179279 4.656544 0.165066
v -0.161984 4.700821 0.155363
v -0.181390 4.720227 0.066809
v -0.212973 4.405968 0.070514
v -0.196573 4.398545 0.164884
v -0.215979 4.523712 0.194175
v -0.227569 4.520511 0.086214
v -0.049187 4.336981 0.231221
v -0.054038 4.523712 0.255261
v -0.046761 4.678375 0.202169
v -0.044336 4.729929 0.184472
v -0.117110 4.182779 0.148701
v -0.145622 4.219975 0.132419
v -0.160798 4.240864 0.047215
v -0.054670 4.799282 -0.082657
v -0.057834 4.818282 -0.020607
v -0.052983 4.791281 0.081363
v -0.038748 4.140762 0.174916
v -0.132890 4.328200 -0.213303
v -0.177168 4.335003 -0.205182
v -0.228005 4.408161 0.023330
v -0.055409 4.807417 0.030378
v -0.220600 4.514438 0.032234
v -0.207553 4.684917 0.024957
v -0.191092 4.729929 0.022531
v -0.146848 4.763767 0.025147
v -0.136057 4.746647 0.071660
v -0.105908 4.780097 0.076511
v -0.110759 4.790574 0.027762
v -0.044336 4.314594 -0.229546
v -0.088613 4.321397 -0.221424
v -0.098316 4.420277 -0.245353
v -0.049187 4.415737 -0.257317
v -0.077929 4.161771 0.161808
v -0.098316 4.357503 0.209109
v -0.147444 4.378024 0.186996
v -0.088613 4.720227 0.174769
v -0.144633 4.759086 -0.080554
v -0.154126 4.773857 -0.021367
v -0.115610 4.801051 -0.020987
v -0.109282 4.784166 -0.081606
v -0.132576 4.663821 0.177434
v -0.093464 4.671098 0.189801
v -0.108018 4.523712 0.234899
v -0.161999 4.523712 0.214537
v -0.108018 4.532063 -0.259411
v -0.054038 4.536238 -0.270284
v -0.046761 4.680653 -0.225733
v -0.093464 4.672616 -0.220008
v -0.044336 4.728791 -0.210882
v -0.053018 4.187368 -0.095062
v -0.152413 4.263542 -0.087817
v -0.039896 4.230795 0.024195
v -0.229531 4.640110 -0.085831
v -0.196573 4.612267 -0.218261
v -0.234107 4.641587 0.027383
v -0.239326 4.642233 -0.021746
v -0.098316 4.625765 -0.233142
v -0.049187 4.632514 -0.240583
v -0.098316 4.621969 0.204834
v -0.147444 4.617118 0.189801
v -0.219075 4.636736 0.076511
v -0.049187 4.626821 0.219866
v -0.196573 4.612267 0.174769
v -0.147444 4.619016 -0.225702
vt 0.368056 0.625000
vt 0.715385 0.562500
vt 0.356732 0.570649
vt 0.449766 0.481610
vt 0.463466 0.484451
vt 0.625000 0.383654
vt 0.618164 0.442925
vt 0.657552 0.436198
vt 0.666667 0.458333
vt 0.625000 0.467014
vt 0.421224 0.449653
vt 0.500000 0.463108
vt 0.500000 0.493056
vt 0.416667 0.475695
vt 0.428366 0.576311
vt 0.500000 0.581972
vt 0.500000 0.625000
vt 0.434028 0.625000
vt 0.607451 0.573480
vt 0.643268 0.570649
vt 0.631945 0.625000
vt 0.598958 0.625000
vt 0.611979 0.703993
vt 0.649306 0.708333
vt 0.666667 0.791667
vt 0.625000 0.782986
vt 0.425347 0.699653
vt 0.500000 0.690972
vt 0.500000 0.756944
vt 0.416667 0.774306
vt 0.430339 0.852431
vt 0.500000 0.846788
vt 0.500000 0.876736
vt 0.434896 0.878472
vt 0.604492 0.855252
vt 0.639323 0.858073
vt 0.630208 0.880208
vt 0.597656 0.879340
vt 0.324653 0.703776
vt 0.350694 0.708333
vt 0.333333 0.791667
vt 0.311198 0.782552
vt 0.725468 0.579566
vt 0.752868 0.582538
vt 0.751736 0.625000
vt 0.721788 0.625000
vt 0.727431 0.694661
vt 0.753472 0.690104
vt 0.755208 0.755208
vt 0.733073 0.764323
vt 0.360677 0.858073
vt 0.369792 0.880208
vt 0.342448 0.436198
vt 0.333333 0.458333
vt 0.359375 0.666667
vt 0.429688 0.662326
vt 0.724609 0.659831
vt 0.752604 0.657552
vt 0.500000 0.657986
vt 0.605469 0.664496
vt 0.640625 0.666667
vt 0.668620 0.664388
vt 0.696615 0.662109
vt 0.701389 0.699219
vt 0.675347 0.703776
vt 0.360677 0.391927
vt 0.430339 0.397569
vt 0.425781 0.423611
vt 0.351563 0.414062
vt 0.342448 0.813802
vt 0.421224 0.800347
vt 0.425781 0.826389
vt 0.351562 0.835938
vt 0.688802 0.782552
vt 0.670668 0.573621
vt 0.698068 0.576594
vt 0.691840 0.625000
vt 0.661892 0.625000
vt 0.272569 0.694662
vt 0.298611 0.699219
vt 0.289063 0.773438
vt 0.266927 0.764323
vt 0.618164 0.807075
vt 0.648438 0.835938
vt 0.611328 0.831163
vt 0.500000 0.786893
vt 0.500000 0.816840
vt 0.500000 0.403212
vt 0.500000 0.433160
vt 0.604492 0.394748
vt 0.639323 0.391927
vt 0.648438 0.414062
vt 0.611328 0.418837
vt 0.710938 0.476563
vt 0.733073 0.485677
vt 0.755208 0.494792
vt 0.311198 0.467448
vt 0.329332 0.573621
vt 0.301932 0.576593
vt 0.583333 0.475694
vt 0.571634 0.576310
vt 0.565972 0.625000
vt 0.570312 0.662326
vt 0.569661 0.397569
vt 0.574219 0.423611
vt 0.578776 0.800347
vt 0.574219 0.826389
vt 0.574653 0.699653
vt 0.569661 0.852431
vt 0.565104 0.878472
vt 0.583333 0.774306
vt 0.578776 0.449653
vt 0.710938 0.773438
vt 0.436066 0.478769
vt 0.500000 0.373264
vt 0.565104 0.371528
vt 0.657552 0.813802
vt 0.434896 0.371528
vt 0.369792 0.369792
vt 0.289062 0.476563
vt 0.688802 0.467448
vt 0.597656 0.370660
vt 0.630208 0.369792
vt 0.246528 0.690104
vt 0.244792 0.755208
vt 0.368056 0.625000
vt 0.356732 0.570649
vt 0.715385 0.562500
vt 0.449766 0.481610
vt 0.625000 0.383654
vt 0.463466 0.484451
vt 0.618164 0.442925
vt 0.625000 0.467014
vt 0.666667 0.458333
vt 0.657552 0.436198
vt 0.421224 0.449653
vt 0.416667 0.475695
vt 0.500000 0.493056
vt 0.500000 0.463108
vt 0.428366 0.576311
vt 0.434028 0.625000
vt 0.500000 0.625000
vt 0.500000 0.581972
vt 0.607451 0.573480
vt 0.598958 0.625000
vt 0.631945 0.625000
vt 0.643268 0.570649
vt 0.611979 0.703993
vt 0.625000 0.782986
vt 0.666667 0.791667
vt 0.649306 0.708333
vt 0.425347 0.699653
vt 0.416667 0.774306
vt 0.500000 0.756944
vt 0.500000 0.690972
vt 0.430339 0.852431
vt 0.500000 0.846788
vt 0.604492 0.855252
vt 0.639323 0.858073
vt 0.324653 0.703776
vt 0.311198 0.782552
vt 0.333333 0.791667
vt 0.350694 0.708333
vt 0.725468 0.579566
vt 0.721788 0.625000
vt 0.727431 0.694661
vt 0.733073 0.764323
vt 0.360677 0.858073
vt 0.342448 0.436198
vt 0.333333 0.458333
vt 0.359375 0.666667
vt 0.429688 0.662326
vt 0.724609 0.659831
vt 0.500000 0.657986
vt 0.605469 0.664496
vt 0.640625 0.666667
vt 0.668620 0.664388
vt 0.675347 0.703776
vt 0.701389 0.699219
vt 0.696615 0.662109
vt 0.360677 0.391927
vt 0.351563 0.414062
vt 0.425781 0.423611
vt 0.430339 0.397569
vt 0.342448 0.813802
vt 0.351562 0.835938
vt 0.425781 0.826389
vt 0.421224 0.800347
vt 0.688802 0.782552
vt 0.670668 0.573621
vt 0.661892 0.625000
vt 0.691840 0.625000
vt 0.698068 0.576594
vt 0.272569 0.694662
vt 0.266927 0.764323
vt 0.289063 0.773438
vt 0.298611 0.699219
vt 0.618164 0.807075
vt 0.611328 0.831163
vt 0.648438 0.835938
vt 0.500000 0.816840
vt 0.500000 0.786893
vt 0.500000 0.433160
vt 0.500000 0.403212
vt 0.604492 0.394748
vt 0.611328 0.418837
vt 0.648438 0.414062
vt 0.639323 0.391927
vt 0.710938 0.476563
vt 0.733073 0.485677
vt 0.311198 0.467448
vt 0.329332 0.573621
vt 0.301932 0.576593
vt 0.571634 0.576310
vt 0.583333 0.475694
vt 0.570312 0.662326
vt 0.565972 0.625000
vt 0.574219 0.423611
vt 0.569661 0.397569
vt 0.574219 0.826389
vt 0.578776 0.800347
vt 0.574653 0.699653
vt 0.569661 0.852431
vt 0.583333 0.774306
vt 0.578776 0.449653
vt 0.710938 0.773438
vt 0.657552 0.813802
vt 0.289062 0.476563
vt 0.688802 0.467448
vn 0.9228 -0.3805 -0.0608
vn 0.9008 -0.4160 -0.1247
vn 0.8511 -0.5041 -0.1470
vn -0.1287 0.4988 -0.8571
vn -0.1251 0.4982 -0.8580
vn -0.1302 0.4990 -0.8567
vn 0.1789 0.2795 -0.9433
vn 0.2655 0.6101 -0.7466
vn 0.5445 0.5551 -0.6288
vn 0.5918 0.4018 -0.6988
vn 0.2225 -0.2002 -0.9541
vn 0.2099 0.0482 -0.9765
vn 0.7114 0.0049 -0.7028
vn 0.6919 -0.2483 -0.6780
vn 0.9680 -0.2180 -0.1242
vn 0.9905 -0.0276 -0.1347
vn 0.9955 -0.0430 0.0849
vn 0.9799 -0.1967 0.0341
vn 0.8655 0.4201 -0.2729
vn 0.7149 0.6360 -0.2907
vn 0.7564 0.6541 -0.0111
vn 0.8942 0.4477 -0.0041
vn 0.8654 0.4174 0.2774
vn 0.7260 0.6063 0.3246
vn 0.5892 0.5639 0.5787
vn 0.6452 0.4060 0.6472
vn 0.9687 -0.2148 0.1244
vn 0.9926 -0.0172 0.1201
vn 0.7752 0.0109 0.6316
vn 0.8076 -0.2662 0.5262
vn 0.4324 -0.1959 0.8802
vn 0.3698 0.0992 0.9238
vn 0.0000 0.1121 0.9937
vn -0.0000 -0.2310 0.9729
vn 0.2885 0.3227 0.9014
vn 0.2808 0.6047 0.7453
vn 0.0000 0.6427 0.7661
vn -0.0000 0.3454 0.9385
vn 0.5538 -0.7085 0.4375
vn 0.8945 -0.4395 0.0814
vn 0.8034 -0.4852 0.3452
vn 0.6494 -0.6290 0.4274
vn 0.1865 0.9037 -0.3854
vn -0.0000 0.9214 -0.3886
vn 0.0000 0.9988 -0.0480
vn 0.1989 0.9791 -0.0424
vn 0.2354 0.8904 0.3896
vn 0.0000 0.9208 0.3899
vn 0.5438 -0.6939 0.4720
vn 0.0000 -0.8352 0.5500
vn 0.4405 -0.4852 -0.7553
vn 0.6699 -0.4690 -0.5755
vn 0.8162 0.3667 -0.4464
vn 0.9739 -0.1923 0.1207
vn 0.2079 0.9488 0.2378
vn 0.0000 0.9721 0.2344
vn 0.9883 -0.0327 0.1492
vn 0.8606 0.4268 0.2781
vn 0.7508 0.5986 0.2790
vn 0.6069 0.7458 0.2745
vn 0.4552 0.8503 0.2642
vn 0.4754 0.7851 0.3970
vn 0.5689 0.7364 0.3661
vn 0.2334 -0.2685 -0.9346
vn 0.2250 -0.1906 -0.9555
vn 0.2239 -0.1947 -0.9550
vn 0.3643 -0.3834 -0.8487
vn 0.4737 -0.2345 0.8489
vn 0.4315 -0.2063 0.8782
vn 0.5582 -0.6792 0.4765
vn 0.3478 0.5924 0.7267
vn 0.5277 0.7823 -0.3310
vn 0.4008 0.8337 -0.3800
vn 0.4407 0.8972 -0.0273
vn 0.6197 0.7846 -0.0183
vn 0.4747 -0.6772 0.5621
vn 0.6724 -0.6537 0.3471
vn 0.3129 0.3105 0.8976
vn 0.3099 0.3137 0.8975
vn 0.3778 0.0401 0.9250
vn 0.3735 0.0728 0.9248
vn 0.2108 0.0944 -0.9730
vn 0.2104 0.0728 -0.9749
vn 0.1661 0.2981 -0.9400
vn 0.1862 0.6233 -0.7595
vn 0.1796 0.2882 -0.9406
vn 0.0000 0.6619 -0.7496
vn 0.6719 -0.6989 -0.2452
vn 0.6543 -0.6519 -0.3834
vn 0.6566 0.3249 -0.6807
vn 0.9378 0.2735 -0.2137
vn 0.9792 0.1979 0.0438
vn 0.9486 0.2152 0.2321
vn 0.1861 0.2980 -0.9362
vn 0.1895 0.2871 -0.9390
vn 0.3151 0.3060 0.8984
vn 0.3159 0.3121 0.8960
vn 0.9331 0.2891 0.2140
vn 0.3092 0.3215 0.8950
vn -0.0000 0.3458 0.9383
vn 0.7130 0.3233 0.6221
vn 0.1875 0.2774 -0.9423
vn 0.1969 0.3705 -0.9077
vn 0.0000 0.1137 -0.9935
vn 0.0000 0.3108 -0.9505
vn -0.0000 -0.1967 -0.9805
vn -0.0000 -0.2841 -0.9588
vn 0.0000 0.3103 -0.9506
vn 0.0000 -0.8844 0.4666
vn -0.9228 -0.3805 -0.0608
vn -0.8511 -0.5041 -0.1470
vn -0.9008 -0.4160 -0.1247
vn 0.1287 0.4988 -0.8571
vn 0.1302 0.4990 -0.8567
vn 0.1251 0.4982 -0.8580
vn -0.1789 0.2795 -0.9433
vn -0.5918 0.4018 -0.6988
vn -0.5445 0.5551 -0.6288
vn -0.2655 0.6101 -0.7466
vn -0.2225 -0.2002 -0.9541
vn -0.6919 -0.2483 -0.6780
vn -0.7114 0.0049 -0.7028
vn -0.2099 0.0482 -0.9765
vn -0.9680 -0.2180 -0.1242
vn -0.9799 -0.1967 0.0341
vn -0.9955 -0.0430 0.0849
vn -0.9905 -0.0276 -0.1347
vn -0.8655 0.4201 -0.2729
vn -0.8942 0.4477 -0.0041
vn -0.7564 0.6541 -0.0111
vn -0.7149 0.6360 -0.2907
vn -0.8654 0.4174 0.2774
vn -0.6452 0.4060 0.6472
vn -0.5892 0.5639 0.5787
vn -0.7260 0.6063 0.3246
vn -0.9687 -0.2148 0.1244
vn -0.8076 -0.2662 0.5262
vn -0.7752 0.0109 0.6316
vn -0.9926 -0.0172 0.1201
vn -0.4324 -0.1959 0.8802
vn -0.3698 0.0992 0.9238
vn -0.2885 0.3227 0.9014
vn -0.2808 0.6047 0.7453
vn -0.5538 -0.7085 0.4375
vn -0.6494 -0.6290 0.4274
vn -0.8034 -0.4852 0.3452
vn -0.8945 -0.4395 0.0814
vn -0.1865 0.9037 -0.3854
vn -0.1989 0.9791 -0.0424
vn -0.2354 0.8904 0.3896
vn -0.5438 -0.6939 0.4720
vn -0.4405 -0.4852 -0.7553
vn -0.6699 -0.4690 -0.5755
vn -0.8162 0.3667 -0.4464
vn -0.9739 -0.1923 0.1207
vn -0.2079 0.9488 0.2378
vn -0.9883 -0.0327 0.1492
vn -0.8606 0.4268 0.2781
vn -0.7508 0.5986 0.2790
vn -0.6069 0.7458 0.2745
vn -0.5689 0.7364 0.3661
vn -0.4754 0.7851 0.3970
vn -0.4552 0.8503 0.2642
vn -0.2334 -0.2685 -0.9346
vn -0.3643 -0.3834 -0.8487
vn -0.2239 -0.1947 -0.9550
vn -0.2250 -0.1906 -0.9555
vn -0.5582 -0.6792 0.4765
vn -0.4315 -0.2063 0.8782
vn -0.4737 -0.2345 0.8489
vn -0.3478 0.5924 0.7267
vn -0.5277 0.7823 -0.3310
vn -0.6197 0.7846 -0.0183
vn -0.4407 0.8972 -0.0273
vn -0.4008 0.8337 -0.3800
vn -0.4748 -0.6772 0.5621
vn -0.6724 -0.6537 0.3471
vn -0.3129 0.3105 0.8976
vn -0.3099 0.3137 0.8975
vn -0.3735 0.0728 0.9248
vn -0.3778 0.0401 0.9250
vn -0.2104 0.0728 -0.9749
vn -0.2108 0.0944 -0.9730
vn -0.1661 0.2981 -0.9400
vn -0.1796 0.2882 -0.9406
vn -0.1862 0.6233 -0.7595
vn -0.6719 -0.6989 -0.2452
vn -0.6543 -0.6519 -0.3834
vn -0.9378 0.2735 -0.2137
vn -0.6566 0.3249 -0.6807
vn -0.9486 0.2152 0.2321
vn -0.9792 0.1979 0.0438
vn -0.1895 0.2871 -0.9390
vn -0.1861 0.2980 -0.9362
vn -0.3159 0.3121 0.8960
vn -0.3151 0.3060 0.8984
vn -0.9331 0.2891 0.2140
vn -0.3092 0.3215 0.8950
vn -0.7130 0.3233 0.6221
vn -0.1875 0.2774 -0.9423
vn -0.1969 0.3705 -0.9077
usemtl None
s 1
f 14/1/1 7/2/2 15/3/3
f 18/4/4 16/5/5 9/6/6
f 19/7/7 20/8/8 21/9/9 22/10/10
f 23/11/11 24/12/12 25/13/13 26/14/14
f 27/15/15 28/16/16 29/17/17 30/18/18
f 31/19/19 32/20/20 33/21/21 34/22/22
f 35/23/23 36/24/24 37/25/25 38/26/26
f 39/27/27 40/28/28 41/29/29 42/30/30
f 43/31/31 44/32/32 45/33/33 46/34/34
f 47/35/35 48/36/36 49/37/37 50/38/38
f 11/39/39 51/40/40 52/41/41 53/42/42
f 54/43/43 55/44/44 56/45/45 57/46/46
f 58/47/47 59/48/48 49/49/37 48/50/36
f 60/51/49 43/31/31 46/34/34 61/52/50
f 51/40/40 39/27/27 42/30/30 52/41/41
f 15/3/3 27/15/15 30/18/18 14/1/1
f 62/53/51 23/11/11 26/14/14 63/54/52
f 5/55/53 64/56/54 39/27/27 51/40/40
f 65/57/55 66/58/56 59/48/48 58/47/47
f 64/56/54 67/59/57 40/28/28 39/27/27
f 68/60/58 69/61/59 36/24/24 35/23/23
f 70/62/60 71/63/61 72/64/62 73/65/63
f 74/66/64 75/67/65 76/68/66 77/69/67
f 53/70/42 78/71/68 79/72/69 80/73/70
f 73/65/63 72/64/62 81/74/71
f 82/75/72 83/76/73 84/77/74 85/78/75
f 10/79/76 12/80/77 80/81/70 60/82/49
f 86/83/78 81/84/71 87/85/79
f 78/71/68 88/86/80 89/87/81 79/72/69
f 75/67/65 90/88/82 91/89/83 76/68/66
f 92/90/84 93/91/85 20/92/8 94/93/86
f 85/78/75 84/77/74 71/63/61 70/62/60
f 34/22/22 33/21/21 69/61/59 68/60/58
f 30/18/18 29/17/17 67/59/57 64/56/54
f 57/46/46 56/45/45 66/58/56 65/57/55
f 14/1/1 30/18/18 64/56/54 5/55/53
f 20/94/8 83/76/73 82/75/72
f 63/54/52 26/14/14 27/15/15 15/3/3
f 93/95/85 96/96/87 55/44/44 54/43/43
f 62/97/51 63/54/52 15/3/3 97/98/88
f 22/10/10 21/9/9 32/20/20 31/19/19
f 26/14/14 25/13/13 28/16/16 27/15/15
f 14/1/1 5/55/53 7/2/2
f 6/99/89 97/98/88 15/3/3 7/2/2
f 25/13/13 99/100/90 100/101/91 28/16/16
f 29/17/17 101/102/92 102/103/93 67/59/57
f 90/88/82 103/104/94 104/105/95 91/89/83
f 88/86/80 105/106/96 106/107/97 89/87/81
f 67/59/57 102/103/93 107/108/98 40/28/28
f 44/32/32 108/109/99 109/110/100 45/33/33
f 40/28/28 107/108/98 110/111/101 41/29/29
f 28/16/16 100/101/91 101/102/92 29/17/17
f 24/12/12 111/112/102 99/100/90 25/13/13
f 69/61/59 70/62/60 73/65/63 36/24/24
f 72/64/62 58/47/47 48/50/36 81/113/71
f 12/80/77 11/39/39 53/42/42 80/81/70
f 8/114/103 18/4/4 9/6/6
f 112/115/104 113/116/105 103/104/94 90/88/82
f 38/26/26 37/25/25 81/117/71 86/83/78
f 42/30/30 41/29/29 88/86/80 78/71/68
f 91/89/83 104/105/95 111/112/102 24/12/12
f 41/29/29 110/111/101 105/106/96 88/86/80
f 33/21/21 85/78/75 70/62/60 69/61/59
f 84/77/74 57/46/46 65/57/55 71/63/61
f 36/24/24 73/65/63 81/74/71 37/25/25
f 20/94/8 93/95/85 54/43/43 83/76/73
f 87/85/79 81/84/71 48/36/36 47/35/35
f 114/118/106 112/115/104 90/88/82 75/67/65
f 71/63/61 65/57/55 58/47/47 72/64/62
f 115/119/107 114/118/106 75/67/65 74/66/64
f 107/108/98 35/23/23 38/26/26 110/111/101
f 103/104/94 92/90/84 94/93/86 104/105/95
f 100/101/91 31/19/19 34/22/22 101/102/92
f 101/102/92 34/22/22 68/60/58 102/103/93
f 105/106/96 86/83/78 87/85/79 106/107/97
f 77/69/67 76/68/66 23/11/11 62/53/51
f 52/41/41 42/30/30 78/71/68 53/70/42
f 94/93/86 20/8/8 19/7/7
f 77/120/67 62/97/51 97/98/88 6/99/89
f 21/9/9 20/121/8 82/75/72 32/20/20
f 83/76/73 54/43/43 57/46/46 84/77/74
f 32/20/20 82/75/72 85/78/75 33/21/21
f 116/122/108 96/123/87 93/91/85 92/90/84
f 79/72/69 89/87/81 44/32/32 43/31/31
f 2/124/109 10/79/76 60/82/49 61/125/50
f 89/87/81 106/107/97 108/109/99 44/32/32
f 80/73/70 79/72/69 43/31/31 60/51/49
f 76/68/66 91/89/83 24/12/12 23/11/11
f 99/100/90 22/10/10 31/19/19 100/101/91
f 108/109/99 47/35/35 50/38/38 109/110/100
f 104/105/95 94/93/86 19/7/7 111/112/102
f 102/103/93 68/60/58 35/23/23 107/108/98
f 111/112/102 19/7/7 22/10/10 99/100/90
f 110/111/101 38/26/26 86/83/78 105/106/96
f 106/107/97 87/85/79 47/35/35 108/109/99
f 113/116/105 116/122/108 92/90/84 103/104/94
f 126/126/110 127/127/111 120/128/112
f 130/129/113 122/130/114 128/131/115
f 131/132/116 132/133/117 133/134/118 134/135/119
f 135/136/120 136/137/121 137/138/122 138/139/123
f 139/140/124 140/141/125 141/142/126 142/143/127
f 143/144/128 144/145/129 145/146/130 146/147/131
f 147/148/132 148/149/133 149/150/134 150/151/135
f 151/152/136 152/153/137 153/154/138 154/155/139
f 155/156/140 46/34/34 45/33/33 156/157/141
f 157/158/142 50/38/38 49/37/37 158/159/143
f 125/160/144 159/161/145 160/162/146 161/163/147
f 162/164/148 163/165/149 56/45/45 55/44/44
f 164/166/150 158/167/143 49/49/37 59/48/48
f 165/168/151 61/52/50 46/34/34 155/156/140
f 161/163/147 160/162/146 152/153/137 151/152/136
f 127/127/111 126/126/110 140/141/125 139/140/124
f 166/169/152 167/170/153 136/137/121 135/136/120
f 119/171/154 161/163/147 151/152/136 168/172/155
f 169/173/156 164/166/150 59/48/48 66/58/56
f 168/172/155 151/152/136 154/155/139 170/174/157
f 171/175/158 147/148/132 150/151/135 172/176/159
f 173/177/160 174/178/161 175/179/162 176/180/163
f 177/181/164 178/182/165 179/183/166 180/184/167
f 159/185/145 181/186/168 182/187/169 183/188/170
f 174/178/161 184/189/171 175/179/162
f 185/190/172 186/191/173 187/192/174 188/193/175
f 123/194/176 165/195/151 181/196/168 124/197/177
f 189/198/178 190/199/179 184/200/171
f 183/188/170 182/187/169 191/201/180 192/202/181
f 180/184/167 179/183/166 193/203/182 194/204/183
f 195/205/184 196/206/185 134/207/119 197/208/186
f 186/191/173 173/177/160 176/180/163 187/192/174
f 144/145/129 171/175/158 172/176/159 145/146/130
f 140/141/125 168/172/155 170/174/157 141/142/126
f 163/165/149 169/173/156 66/58/56 56/45/45
f 126/126/110 119/171/154 168/172/155 140/141/125
f 134/209/119 185/190/172 188/193/175
f 167/170/153 127/127/111 139/140/124 136/137/121
f 197/210/186 162/164/148 55/44/44 96/96/87
f 166/211/152 199/212/187 127/127/111 167/170/153
f 132/133/117 143/144/128 146/147/131 133/134/118
f 136/137/121 139/140/124 142/143/127 137/138/122
f 126/126/110 120/128/112 119/171/154
f 121/213/188 120/128/112 127/127/111 199/212/187
f 137/138/122 142/143/127 201/214/189 202/215/190
f 141/142/126 170/174/157 203/216/191 204/217/192
f 194/204/183 193/203/182 205/218/193 206/219/194
f 192/202/181 191/201/180 207/220/195 208/221/196
f 170/174/157 154/155/139 209/222/197 203/216/191
f 156/157/141 45/33/33 109/110/100 210/223/198
f 154/155/139 153/154/138 211/224/199 209/222/197
f 142/143/127 141/142/126 204/217/192 201/214/189
f 138/139/123 137/138/122 202/215/190 212/225/200
f 172/176/159 150/151/135 174/178/161 173/177/160
f 175/179/162 184/226/171 158/167/143 164/166/150
f 124/197/177 181/196/168 159/161/145 125/160/144
f 8/114/201 122/130/114 130/129/113
f 112/115/104 194/204/183 206/219/194 113/116/105
f 148/149/133 189/198/178 184/227/171 149/150/134
f 152/153/137 183/188/170 192/202/181 153/154/138
f 193/203/182 138/139/123 212/225/200 205/218/193
f 153/154/138 192/202/181 208/221/196 211/224/199
f 145/146/130 172/176/159 173/177/160 186/191/173
f 187/192/174 176/180/163 169/173/156 163/165/149
f 150/151/135 149/150/134 184/189/171 174/178/161
f 134/209/119 188/193/175 162/164/148 197/210/186
f 190/199/179 157/158/142 158/159/143 184/200/171
f 114/118/106 180/184/167 194/204/183 112/115/104
f 176/180/163 175/179/162 164/166/150 169/173/156
f 115/119/107 177/181/164 180/184/167 114/118/106
f 209/222/197 211/224/199 148/149/133 147/148/132
f 206/219/194 205/218/193 196/206/185 195/205/184
f 201/214/189 204/217/192 144/145/129 143/144/128
f 204/217/192 203/216/191 171/175/158 144/145/129
f 208/221/196 207/220/195 190/199/179 189/198/178
f 178/182/165 166/169/152 135/136/120 179/183/166
f 160/162/146 159/185/145 183/188/170 152/153/137
f 196/206/185 131/132/116 134/135/119
f 178/228/165 121/213/188 199/212/187 166/211/152
f 133/134/118 146/147/131 185/190/172 134/229/119
f 188/193/175 187/192/174 163/165/149 162/164/148
f 146/147/131 145/146/130 186/191/173 185/190/172
f 116/122/108 195/205/184 197/208/186 96/123/87
f 182/187/169 155/156/140 156/157/141 191/201/180
f 2/124/109 61/125/50 165/195/151 123/194/176
f 191/201/180 156/157/141 210/223/198 207/220/195
f 181/186/168 165/168/151 155/156/140 182/187/169
f 179/183/166 135/136/120 138/139/123 193/203/182
f 202/215/190 201/214/189 143/144/128 132/133/117
f 210/223/198 109/110/100 50/38/38 157/158/142
f 205/218/193 212/225/200 131/132/116 196/206/185
f 203/216/191 209/222/197 147/148/132 171/175/158
f 212/225/200 202/215/190 132/133/117 131/132/116
f 211/224/199 208/221/196 189/198/178 148/149/133
f 207/220/195 210/223/198 157/158/142 190/199/179
f 113/116/105 206/219/194 195/205/184 116/122/108
l 121 128
l 118 129
l 177 198
l 118 200
l 6 9
l 6 16
l 74 95
l 118 119
l 121 122
l 1 115
l 3 17
l 3 4
l 3 5
l 3 98
l 115 117
l 4 118
l 4 8
l 11 13
l 16 17
l 128 129
