# Blender v2.92.0 OBJ File: ''
# www.blender.org
mtllib left_foot3.mtl
o left_foot_Cube_Cube.003
v 0.099339 -0.061984 -0.004083
v 0.096458 -0.067291 -0.050723
v 0.088993 -0.008753 -0.044371
v 0.093542 -0.007491 -0.003272
v 0.047580 -0.072534 -0.101609
v 0.036889 0.003001 -0.091263
v 0.087521 -0.058859 0.101896
v 0.097573 -0.056652 0.046136
v 0.073671 0.004468 0.074652
v 0.002350 -0.046324 0.119894
v 0.048251 -0.047517 0.117539
v 0.036941 0.002650 0.078032
v 0.001566 0.007397 0.096013
v -0.083253 -0.058799 0.102055
v -0.043830 -0.047488 0.117657
v -0.039900 0.007068 0.092417
v 0.104482 -0.149925 0.247718
v 0.050925 -0.121598 0.238923
v 0.051163 -0.148556 0.315581
v 0.107531 -0.168787 0.335916
v 0.052556 -0.168459 0.384600
v 0.107357 -0.202993 0.430976
v 0.002764 -0.190517 -0.120623
v 0.002696 -0.116045 -0.114481
v 0.050971 -0.153910 -0.120815
v 0.002455 -0.072880 -0.104954
v 0.085742 -0.114520 -0.096302
v -0.097821 -0.145674 -0.018525
v -0.097434 -0.104689 -0.006356
v -0.095245 -0.110138 -0.058039
v -0.095723 -0.149053 -0.069136
v -0.095922 -0.061814 -0.003836
v -0.093052 -0.067235 -0.050548
v -0.080513 -0.114351 -0.096148
v 0.002727 -0.120426 0.238537
v -0.045484 -0.121573 0.238923
v -0.045782 -0.148418 0.315582
v 0.002714 -0.147810 0.315173
v -0.099259 -0.149339 0.247714
v -0.102915 -0.167098 0.335916
v -0.092254 -0.177641 0.406599
v -0.047444 -0.167831 0.384600
v 0.002625 -0.168297 0.386278
v 0.003210 -0.243072 0.261972
v 0.069996 -0.241679 0.259605
v 0.071356 -0.242012 0.355164
v 0.002774 -0.243099 0.355953
v 0.114918 -0.231955 0.256038
v 0.117002 -0.225380 0.350592
v 0.068535 -0.216611 0.454562
v 0.002625 -0.236107 0.437957
v 0.002435 -0.216019 0.459038
v 0.002435 -0.183271 0.439291
v -0.060250 -0.196718 0.458499
v -0.109429 -0.214609 0.431846
v 0.004515 -0.229166 0.090681
v 0.060355 -0.227751 0.078446
v 0.065873 -0.234523 0.164082
v 0.004099 -0.236068 0.170943
v 0.099908 -0.215890 0.065919
v 0.108104 -0.223529 0.156072
v -0.045258 -0.087575 0.169586
v 0.002680 -0.086128 0.169863
v -0.096478 -0.125924 0.171145
v -0.122935 -0.213369 0.355311
v -0.116940 -0.207996 0.254901
v 0.106465 -0.148261 0.099145
v 0.101881 -0.106068 0.106507
v 0.108943 -0.161682 0.169227
v 0.050588 -0.087581 0.169571
v 0.103190 -0.147473 -0.019669
v 0.102623 -0.104935 -0.006530
v 0.102517 -0.101106 0.048397
v 0.104490 -0.144777 0.037022
v -0.094010 -0.056497 0.046393
v -0.089991 -0.001881 0.040590
v -0.094356 -0.007788 -0.002351
v 0.002641 -0.230778 -0.029949
v 0.051113 -0.230287 -0.046623
v 0.054822 -0.227523 0.007937
v 0.003697 -0.228431 0.024303
v 0.086806 -0.217777 -0.063076
v 0.105052 -0.185472 0.008842
v -0.107504 -0.196729 0.160369
v -0.096336 -0.106000 0.106536
v -0.099223 -0.147781 0.099227
v 0.002419 -0.230266 -0.073935
v 0.049978 -0.218311 -0.109797
v -0.089845 -0.009338 -0.043830
v 0.100405 -0.110375 -0.058227
v 0.100869 -0.150889 -0.070467
v -0.097171 -0.100938 0.048505
v -0.098066 -0.143584 0.037625
v -0.043125 -0.072605 -0.101573
v -0.039475 -0.008636 -0.096148
v 0.001866 -0.008766 -0.102155
v -0.080214 -0.210471 -0.091869
v -0.045918 -0.225341 -0.043478
v -0.096107 -0.182696 -0.043960
v -0.046458 -0.224241 0.009595
v -0.096809 -0.182041 0.010577
v -0.049537 -0.226431 0.078670
v -0.100135 -0.185996 0.078676
v -0.056303 -0.234189 0.163852
v -0.063104 -0.241584 0.259497
v 0.058267 -0.183556 0.435301
v -0.065795 -0.241865 0.355151
v -0.064619 -0.233150 0.428314
v -0.045435 -0.188523 -0.119099
v 0.085194 -0.189736 -0.113067
vt 0.625000 0.059133
vt 0.625000 0.029567
vt 0.500000 0.296033
vt 0.500000 0.342067
vt 0.625000 0.000000
vt 0.500000 0.250000
vt 0.625000 0.118266
vt 0.625000 0.088700
vt 0.500000 0.434133
vt 0.500000 0.388100
vt 0.500000 0.856087
vt 0.428819 0.861775
vt 0.406684 0.821072
vt 0.440104 0.831729
vt 0.375000 0.858869
vt 0.375000 0.807818
vt 0.625000 0.868266
vt 0.562500 0.868266
vt 0.505208 0.854906
vt 0.500000 0.868266
vt 0.440104 0.833252
vt 0.472656 0.844079
vt 0.562500 0.181476
vt 0.625000 0.181476
vt 0.625000 0.215240
vt 0.562500 0.215240
vt 0.625000 0.250000
vt 0.562500 0.250000
vt 0.500000 0.375000
vt 0.562500 0.375000
vt 0.500000 0.437500
vt 0.625000 0.375000
vt 0.625000 0.437500
vt 0.562500 0.437500
vt 0.625000 0.500000
vt 0.562500 0.500000
vt 0.500000 0.690867
vt 0.552804 0.689495
vt 0.552805 0.717143
vt 0.500000 0.720433
vt 0.547436 0.679889
vt 0.547436 0.694111
vt 0.547436 0.708333
vt 0.552805 0.744792
vt 0.500000 0.931476
vt 0.562500 0.931476
vt 0.562500 0.965240
vt 0.500000 0.965240
vt 0.625000 0.931476
vt 0.625000 0.965240
vt 0.625000 1.000000
vt 0.562500 1.000000
vt 0.500000 1.000000
vt 0.250000 0.681476
vt 0.312500 0.681476
vt 0.312500 0.715240
vt 0.250000 0.715240
vt 0.375000 0.681476
vt 0.375000 0.715240
vt 0.375000 0.750000
vt 0.312500 0.750000
vt 0.250000 0.750000
vt 0.750000 0.625000
vt 0.812500 0.625000
vt 0.750000 0.687500
vt 0.875000 0.625000
vt 0.875000 0.687500
vt 0.812500 0.687500
vt 0.812500 0.750000
vt 0.750000 0.750000
vt 0.250000 0.618724
vt 0.312500 0.618724
vt 0.312500 0.649430
vt 0.250000 0.649430
vt 0.375000 0.618724
vt 0.375000 0.649430
vt 0.562500 0.866744
vt 0.562500 0.899119
vt 0.499783 0.898241
vt 0.625000 0.899373
vt 0.500000 0.500000
vt 0.562500 0.500000
vt 0.562500 0.534760
vt 0.500000 0.534760
vt 0.562500 0.568524
vt 0.500000 0.568524
vt 0.500000 0.118724
vt 0.562500 0.118724
vt 0.500000 0.149430
vt 0.625000 0.118724
vt 0.625000 0.149430
vt 0.562500 0.149430
vt 0.500000 0.059133
vt 0.562500 0.059133
vt 0.562500 0.088757
vt 0.500000 0.088757
vt 0.625000 0.088757
vt 0.549172 0.664798
vt 0.445546 0.674731
vt 0.445112 0.656561
vt 0.568269 0.641131
vt 0.447716 0.692042
vt 0.250000 0.559133
vt 0.312500 0.559133
vt 0.312500 0.588757
vt 0.250000 0.588757
vt 0.375000 0.559133
vt 0.375000 0.588757
vt 0.561318 0.600775
vt 0.500000 0.600570
vt 0.617909 0.601802
vt 0.556157 0.632188
vt 0.500000 0.631276
vt 0.250000 0.500000
vt 0.312500 0.500000
vt 0.312500 0.529567
vt 0.375000 0.529567
vt 0.250000 0.529567
vt 0.445112 0.638176
vt 0.500000 0.000000
vt 0.562500 0.000000
vt 0.562500 0.029567
vt 0.500000 0.029567
vt 0.553239 0.661584
vt 0.500000 0.661243
vt 0.625000 0.312500
vt 0.500000 0.372356
vt 0.500000 0.414904
vt 0.625000 0.250000
vt 0.500000 0.329808
vt 0.187500 0.500000
vt 0.187500 0.529567
vt 0.125000 0.529567
vt 0.187500 0.559133
vt 0.125000 0.559133
vt 0.187500 0.588757
vt 0.125000 0.588757
vt 0.187500 0.618724
vt 0.125000 0.618724
vt 0.500000 0.457452
vt 0.375000 0.898198
vt 0.436632 0.898454
vt 0.437500 0.931476
vt 0.187500 0.649430
vt 0.125000 0.649430
vt 0.187500 0.681476
vt 0.125000 0.681476
vt 0.812500 0.500000
vt 0.812500 0.562500
vt 0.750000 0.562500
vt 0.875000 0.562500
vt 0.187500 0.715240
vt 0.125000 0.715240
vt 0.187500 0.750000
vt 0.125000 0.750000
vt 0.437500 0.965240
vt 0.437500 1.000000
vt 0.500000 0.250000
vt 0.562500 0.312500
vt 0.500000 0.312500
vt 0.562500 0.250000
vt 0.437500 0.250000
vt 0.437500 0.312500
vt 0.375000 0.312500
vt 0.437500 0.375000
vt 0.375000 0.375000
vt 0.687500 0.562500
vt 0.687500 0.625000
vt 0.625000 0.625000
vt 0.437500 0.631276
vt 0.437500 0.661243
vt 0.437500 0.690867
vt 0.437500 0.000000
vt 0.437500 0.029567
vt 0.437500 0.059133
vt 0.375000 0.029567
vt 0.375000 0.059133
vt 0.437500 0.088757
vt 0.437500 0.118724
vt 0.437500 0.149430
vt 0.500000 0.181476
vt 0.437500 0.181476
vt 0.625000 0.687500
vt 0.687500 0.687500
vt 0.687500 0.750000
vt 0.437500 0.720433
vt 0.375000 0.720434
vt 0.375000 0.437500
vt 0.437500 0.437500
vt 0.500000 0.500000
vt 0.437500 0.500000
vt 0.500000 0.215240
vt 0.437500 0.215240
vt 0.437500 0.250000
vn 0.9916 0.1290 -0.0052
vn 0.9071 0.1981 -0.3713
vn 0.8894 0.1614 -0.4278
vn 0.9846 0.1725 0.0286
vn 0.4059 0.2272 -0.8852
vn 0.6448 -0.0720 -0.7609
vn 0.7699 0.4607 0.4416
vn 0.9744 0.1982 0.1059
vn 0.7121 0.4442 0.5437
vn 0.0457 0.6484 0.7599
vn 0.2525 0.6604 0.7072
vn -0.0400 0.1959 0.9798
vn 0.0301 -0.1786 0.9835
vn -0.7949 0.4319 0.4262
vn -0.2728 0.6001 0.7520
vn -0.2719 0.2312 0.9341
vn 0.8136 0.5705 0.1123
vn 0.2937 0.9088 0.2964
vn 0.1649 0.9431 0.2889
vn 0.7493 0.6388 0.1743
vn 0.1535 0.9469 0.2827
vn 0.8003 0.0401 0.5983
vn -0.0911 -0.3317 -0.9390
vn -0.0645 0.1629 -0.9845
vn 0.2745 0.0995 -0.9564
vn -0.0133 0.1308 -0.9913
vn 0.6958 0.1602 -0.7001
vn -0.9997 -0.0043 -0.0221
vn -0.9992 0.0352 -0.0204
vn -0.9757 0.0735 -0.2065
vn -0.9383 -0.0315 -0.3444
vn -0.9985 0.0515 -0.0181
vn -0.9215 0.1343 -0.3645
vn -0.6424 0.1543 -0.7506
vn 0.0005 0.9208 0.3899
vn -0.2260 0.9114 0.3438
vn -0.1399 0.9525 0.2705
vn 0.0023 0.9524 0.3049
vn -0.7630 0.6316 0.1374
vn -0.6647 0.7310 0.1547
vn -0.4983 0.8001 0.3340
vn -0.0805 0.9562 0.2814
vn -0.0084 0.9577 0.2876
vn -0.0013 -0.9993 -0.0386
vn 0.1365 -0.9900 -0.0346
vn 0.2118 -0.9700 0.1193
vn 0.0224 -0.9974 0.0692
vn 0.8102 -0.5852 -0.0330
vn 0.8509 -0.5138 0.1091
vn 0.3230 -0.3433 0.8819
vn 0.0029 -0.9085 0.4178
vn 0.0166 -0.1731 0.9848
vn 0.0348 0.8061 0.5908
vn -0.2444 0.2777 0.9291
vn -0.7946 -0.2366 0.5591
vn -0.0125 -0.9984 -0.0555
vn 0.1866 -0.9778 -0.0953
vn 0.1240 -0.9885 -0.0870
vn -0.0040 -0.9967 -0.0811
vn 0.7814 -0.6123 -0.1205
vn 0.7888 -0.6082 -0.0888
vn -0.2655 0.8177 0.5107
vn 0.0005 0.8459 0.5333
vn -0.8504 0.4888 0.1947
vn -0.9449 -0.3151 0.0891
vn -0.9289 -0.3644 -0.0660
vn 0.9993 0.0282 -0.0241
vn 0.9394 0.2723 0.2084
vn 0.9576 0.2757 0.0836
vn 0.3914 0.7854 0.4795
vn 0.9963 -0.0365 -0.0777
vn 0.9977 0.0617 -0.0273
vn 0.9936 0.1097 0.0268
vn 0.9998 -0.0015 -0.0218
vn -0.9697 0.1763 0.1689
vn -0.9918 -0.0190 0.1264
vn -0.9435 -0.2224 0.2457
vn -0.0439 -0.9989 0.0187
vn 0.2458 -0.9692 -0.0167
vn 0.2843 -0.9587 -0.0022
vn -0.0277 -0.9996 0.0068
vn 0.7271 -0.6764 -0.1173
vn 0.9191 -0.3864 -0.0771
vn -0.9187 -0.3836 -0.0944
vn -0.9850 0.1649 0.0509
vn -0.9972 0.0703 -0.0236
vn -0.0785 -0.9501 -0.3019
vn 0.1504 -0.7147 -0.6831
vn -0.9141 0.0821 -0.3972
vn 0.9389 0.1279 -0.3194
vn 0.9483 -0.0490 -0.3136
vn -0.9963 0.0783 0.0345
vn -0.9998 0.0150 -0.0124
vn -0.3728 0.1715 -0.9119
vn -0.4314 0.0930 -0.8974
vn 0.0375 0.0882 -0.9954
vn -0.6526 -0.5935 -0.4709
vn -0.3583 -0.9336 -0.0017
vn -0.9188 -0.3938 -0.0267
vn -0.3796 -0.9251 -0.0101
vn -0.9039 -0.4269 -0.0252
vn -0.3461 -0.9347 -0.0806
vn -0.9075 -0.4113 -0.0851
vn -0.3120 -0.9433 -0.1133
vn -0.2800 -0.9578 -0.0652
vn 0.1924 0.8025 0.5648
vn -0.2477 -0.9682 0.0346
vn -0.2246 -0.8777 0.4233
vn -0.2896 -0.2849 -0.9138
vn 0.6729 -0.1837 -0.7166
usemtl None
s 1
f 1/1/1 2/2/2 3/3/3 4/4/4
f 2/2/2 5/5/5 6/6/6 3/3/3
f 7/7/7 8/8/8 9/9/9
f 8/8/8 1/1/1 4/4/4 9/10/9
f 10/11/10 11/12/11 12/13/12 13/14/13
f 11/12/11 7/15/7 9/16/9 12/13/12
f 14/17/14 15/18/15 16/19/16
f 15/18/15 10/20/10 13/21/13 16/22/16
f 17/23/17 18/24/18 19/25/19 20/26/20
f 20/26/20 19/25/19 21/27/21 22/28/22
f 23/29/23 24/30/24 25/31/25
f 24/30/24 26/32/26 5/33/5 25/34/25
f 25/34/25 5/35/5 27/36/27
f 28/37/28 29/38/29 30/39/30 31/40/31
f 29/38/29 32/41/32 33/42/33 30/39/30
f 30/39/30 33/43/33 34/44/34
f 31/40/31 30/39/30 34/44/34
f 35/45/35 36/46/36 37/47/37 38/48/38
f 36/46/36 39/49/39 40/50/40 37/47/37
f 37/47/37 40/50/40 41/51/41 42/52/42
f 38/48/38 37/47/37 42/52/42 43/53/43
f 44/54/44 45/55/45 46/56/46 47/57/47
f 45/55/45 48/58/48 49/59/49 46/56/46
f 46/56/46 49/59/49 22/60/22 50/61/50
f 47/57/47 46/56/46 50/61/50 51/62/51
f 52/63/52 53/64/53 54/65/54
f 53/64/53 43/66/43 42/67/42 54/68/54
f 54/68/54 42/67/42 41/69/41
f 54/68/54 41/69/41 55/70/55
f 56/71/56 57/72/57 58/73/58 59/74/59
f 57/72/57 60/75/60 61/76/61 58/73/58
f 58/73/58 61/76/61 48/58/48 45/55/45
f 59/74/59 58/73/58 45/55/45 44/54/44
f 10/11/10 15/77/15 62/78/62 63/79/63
f 15/77/15 14/17/14 64/80/64 62/78/62
f 62/78/62 64/80/64 39/49/39 36/46/36
f 63/79/63 62/78/62 36/46/36 35/45/35
f 55/81/55 41/82/41 40/83/40 65/84/65
f 65/84/65 40/83/40 39/85/39 66/86/66
f 67/87/67 68/88/68 69/89/69
f 68/88/68 7/90/7 70/91/70 69/92/69
f 69/92/69 70/91/70 18/24/18 17/23/17
f 71/93/71 72/94/72 73/95/73 74/96/74
f 72/94/72 1/1/1 8/97/8 73/95/73
f 73/95/73 8/97/8 7/90/7 68/88/68
f 74/96/74 73/95/73 68/88/68 67/87/67
f 32/41/32 75/98/75 76/99/76 77/100/77
f 75/98/75 14/101/14 16/102/16 76/99/76
f 78/103/78 79/104/79 80/105/80 81/106/81
f 79/104/79 82/107/82 83/108/83 80/105/80
f 80/105/80 83/108/83 60/75/60 57/72/57
f 81/106/81 80/105/80 57/72/57 56/71/56
f 66/86/66 39/85/39 64/109/64 84/110/84
f 64/111/64 14/101/14 85/112/85
f 84/110/84 64/109/64 85/112/85 86/113/86
f 87/114/87 88/115/88 79/116/79
f 79/116/79 88/117/88 82/107/82
f 87/118/87 79/104/79 78/103/78
f 33/42/33 32/41/32 77/100/77 89/119/89
f 25/120/25 27/121/27 90/122/90 91/123/91
f 27/121/27 5/5/5 2/2/2 90/122/90
f 90/122/90 2/2/2 1/1/1 72/94/72
f 91/123/91 90/122/90 72/94/72 71/93/71
f 86/113/86 85/112/85 92/124/92 93/125/93
f 85/112/85 14/101/14 75/98/75 92/124/92
f 92/124/92 75/98/75 32/41/32 29/38/29
f 93/125/93 92/124/92 29/38/29 28/37/28
f 26/32/26 94/126/94 95/127/95 96/128/96
f 94/126/94 33/129/33 89/130/89 95/127/95
f 97/131/97 87/118/87 98/132/98
f 98/132/98 87/118/87 78/103/78
f 97/133/97 98/134/98 99/135/99
f 99/135/99 98/134/98 100/136/100 101/137/101
f 98/134/98 78/103/78 81/106/81 100/136/100
f 100/136/100 81/106/81 56/71/56 102/138/102
f 101/137/101 100/136/100 102/138/102 103/139/103
f 5/33/5 26/32/26 96/128/96 6/140/6
f 7/15/7 11/12/11 70/141/70
f 11/12/11 10/11/10 63/79/63 70/142/70
f 70/142/70 63/79/63 35/45/35 18/143/18
f 103/139/103 102/138/102 104/144/104 84/145/84
f 102/138/102 56/71/56 59/74/59 104/144/104
f 104/144/104 59/74/59 44/54/44 105/146/105
f 84/145/84 104/144/104 105/146/105 66/147/66
f 22/148/22 106/149/106 50/150/50
f 22/148/22 21/151/21 106/149/106
f 106/149/106 21/151/21 43/66/43 53/64/53
f 50/150/50 106/149/106 53/64/53 52/63/52
f 66/147/66 105/146/105 107/152/107 65/153/65
f 105/146/105 44/54/44 47/57/47 107/152/107
f 107/152/107 47/57/47 51/62/51 108/154/108
f 65/153/65 107/152/107 108/154/108 55/155/55
f 18/143/18 35/45/35 38/48/38 19/156/19
f 19/156/19 38/48/38 43/53/43 21/157/21
f 31/158/31 34/159/34 109/160/109
f 34/161/34 33/129/33 94/126/94
f 34/159/34 94/126/94 26/32/26 24/30/24
f 109/160/109 34/159/34 24/30/24 23/29/23
f 97/162/97 31/158/31 109/163/109
f 97/164/97 109/163/109 23/165/23 87/166/87
f 50/167/50 52/168/52 51/169/51
f 103/170/103 86/113/86 93/125/93 101/171/101
f 101/171/101 93/125/93 28/37/28 99/172/99
f 110/173/110 25/120/25 91/123/91
f 110/174/110 91/123/91 71/93/71 82/175/82
f 88/176/88 110/174/110 82/177/82
f 84/110/84 86/113/86 103/170/103
f 82/175/82 71/93/71 74/96/74 83/178/83
f 83/178/83 74/96/74 67/87/67 60/179/60
f 60/179/60 67/87/67 69/89/69 61/180/61
f 61/180/61 69/89/69 17/181/17 48/182/48
f 51/169/51 52/168/52 108/183/108
f 52/63/52 54/65/54 108/184/108
f 108/184/108 54/65/54 55/185/55
f 99/172/99 31/186/31 97/187/97
f 99/172/99 28/37/28 31/186/31
f 87/166/87 23/165/23 88/188/88
f 23/29/23 25/31/25 88/189/88
f 88/189/88 25/190/25 110/191/110
f 48/182/48 17/181/17 20/192/20 49/193/49
f 49/193/49 20/192/20 22/194/22
