# Blender v2.92.0 OBJ File: ''
# www.blender.org
mtllib right_upper_leg3.mtl
o right_upper_leg_Cube_Cube.007
v -0.092525 0.059668 -0.186400
v -0.107619 -0.036075 -0.177039
v -0.169599 -0.000497 -0.134925
v -0.149873 0.096095 -0.140856
v -0.018541 0.013706 -0.206546
v -0.028112 -0.079191 -0.191138
v -0.184148 0.116756 0.105103
v -0.206057 0.020963 0.102628
v -0.170277 0.006650 0.171334
v -0.150083 0.100361 0.175556
v -0.194486 0.119095 0.018231
v -0.216570 0.022687 0.018415
v 0.063317 -0.032873 0.203144
v 0.057067 -0.110479 0.198567
v 0.125557 -0.142490 0.150574
v 0.129127 -0.070830 0.153036
v -0.015989 0.015376 0.224673
v -0.026665 -0.068117 0.220263
v 0.164442 -0.086524 -0.101985
v 0.163885 -0.157203 -0.074804
v 0.125360 -0.144523 -0.139265
v 0.128560 -0.065344 -0.171506
v 0.174250 -0.093880 -0.013510
v 0.174857 -0.160106 0.003447
v -0.070767 -0.596037 -0.162105
v -0.077268 -0.728451 -0.154236
v -0.146346 -0.714362 -0.136864
v -0.148068 -0.582540 -0.143978
v -0.201576 -0.703925 -0.099423
v -0.209434 -0.572366 -0.104213
v -0.144112 -0.825597 -0.132218
v -0.193676 -0.815540 -0.096361
v -0.082647 -0.839495 -0.149014
v -0.256918 -0.567494 0.007409
v -0.246014 -0.699148 0.002015
v -0.235926 -0.699000 0.055350
v -0.246578 -0.567450 0.066482
v -0.203239 -0.702824 0.103500
v -0.211481 -0.571398 0.119165
v -0.225500 -0.811493 0.047972
v -0.210484 -0.799602 0.109079
v -0.235334 -0.811249 -0.001608
v -0.072645 -0.596524 0.173818
v -0.078610 -0.728539 0.155198
v -0.006363 -0.742121 0.141085
v 0.007841 -0.609125 0.158777
v 0.053670 -0.752689 0.104022
v 0.074025 -0.618605 0.119011
v -0.018096 -0.833938 0.140596
v 0.044070 -0.854264 0.090374
v -0.079677 -0.815498 0.154190
v 0.123248 -0.626462 0.000124
v 0.099793 -0.761593 -0.004361
v 0.089202 -0.759824 -0.061692
v 0.112335 -0.624961 -0.062999
v 0.054380 -0.753444 -0.110957
v 0.075034 -0.619265 -0.116646
v 0.068330 -0.872680 -0.060848
v 0.043431 -0.865506 -0.107118
v 0.078598 -0.875017 -0.007485
v 0.172800 -0.250004 0.009965
v 0.161445 -0.248732 -0.064531
v 0.121487 -0.240552 -0.127333
v 0.152650 -0.359826 -0.064353
v 0.112492 -0.353914 -0.125653
v 0.163968 -0.360951 0.008532
v -0.038682 -0.184895 0.215982
v 0.049241 -0.214908 0.196129
v 0.120954 -0.237389 0.149892
v 0.038462 -0.339067 0.190171
v 0.111342 -0.352421 0.145332
v -0.051042 -0.321178 0.207872
v -0.238103 -0.119595 0.018421
v -0.227494 -0.120799 0.096999
v -0.190289 -0.131138 0.162753
v -0.243388 -0.281193 0.088576
v -0.205638 -0.287632 0.150483
v -0.253999 -0.280437 0.016863
v -0.038332 -0.194177 -0.182380
v -0.122648 -0.162790 -0.167807
v -0.188748 -0.136708 -0.125719
v -0.135436 -0.305231 -0.159425
v -0.203370 -0.290025 -0.116470
v -0.049177 -0.324078 -0.177021
v 0.146209 -0.489151 0.004695
v 0.135053 -0.487860 -0.064218
v 0.095855 -0.482537 -0.122280
v -0.063023 -0.459648 0.192888
v 0.023750 -0.472420 0.176743
v 0.094605 -0.481917 0.134155
v -0.260314 -0.429407 0.012861
v -0.249794 -0.429717 0.078067
v -0.212839 -0.434215 0.135511
v -0.060771 -0.459384 -0.170223
v -0.144386 -0.445725 -0.151567
v -0.210474 -0.435186 -0.109558
v 0.061201 -0.952112 -0.008648
v 0.051175 -0.948805 -0.060929
v 0.020249 -0.940898 -0.106408
v -0.087739 -0.912100 0.167091
v -0.028094 -0.924651 0.153452
v 0.019808 -0.944358 0.090794
v -0.231691 -0.892164 -0.002732
v -0.222051 -0.893394 0.046175
v -0.206437 -0.899696 0.089784
v -0.089582 -0.915939 -0.148172
v -0.146020 -0.903590 -0.131670
v -0.191839 -0.894984 -0.096248
v -0.030204 -0.929225 -0.138108
v -0.018294 -0.853730 -0.139074
v -0.144506 -0.898764 0.152836
v -0.150599 -0.804034 0.139599
v 0.025542 -0.472495 -0.159567
v 0.039973 -0.341385 -0.164976
v 0.009307 -0.609087 -0.151861
v -0.146944 -0.445408 0.176928
v -0.137716 -0.302294 0.192950
v -0.150247 -0.582366 0.158218
v 0.049570 -0.221665 -0.168139
v 0.055995 -0.117494 -0.178625
v -0.123671 -0.154378 0.204193
v -0.107149 -0.025544 0.211442
v -0.148018 -0.713882 0.140143
v -0.005345 -0.742363 -0.144211
v -0.091167 0.063719 0.215983
v 0.061411 -0.030373 -0.203771
v -0.221230 -0.891955 -0.051565
v -0.224626 -0.811702 -0.051100
v 0.050949 -0.950496 0.043864
v 0.068068 -0.872725 0.046078
v -0.248385 -0.430491 -0.052210
v -0.241991 -0.282529 -0.054710
v -0.245349 -0.568259 -0.051546
v 0.134410 -0.487328 0.073873
v 0.152021 -0.359109 0.081705
v 0.111820 -0.624363 0.063471
v -0.226408 -0.123487 -0.060032
v -0.205339 0.017460 -0.065758
v 0.161052 -0.247699 0.084768
v 0.163769 -0.157215 0.082293
v 0.088834 -0.759216 0.053165
v -0.234903 -0.699845 -0.051219
v 0.164448 -0.090480 0.076131
v -0.183609 0.114127 -0.068781
vt 0.375000 0.479067
vt 0.375000 0.479067
vt 0.375000 0.513301
vt 0.375000 0.513301
vt 0.375000 0.454808
vt 0.375000 0.454808
vt 0.375000 0.685837
vt 0.375000 0.685837
vt 0.375000 0.736699
vt 0.375000 0.736699
vt 0.375000 0.625000
vt 0.375000 0.625000
vt 0.375000 0.817789
vt 0.375000 0.817789
vt 0.375000 0.840385
vt 0.375000 0.840385
vt 0.375000 0.795192
vt 0.375000 0.795192
vt 0.284615 0.562500
vt 0.284615 0.562500
vt 0.284615 0.500000
vt 0.284615 0.500000
vt 0.284615 0.625000
vt 0.284615 0.625000
vt 0.375000 0.454808
vt 0.375000 0.454808
vt 0.375000 0.478632
vt 0.375000 0.476462
vt 0.375000 0.511565
vt 0.375000 0.492468
vt 0.375000 0.479067
vt 0.375000 0.513301
vt 0.375000 0.454808
vt 0.375000 0.645833
vt 0.375000 0.626736
vt 0.375000 0.686114
vt 0.375000 0.687500
vt 0.375000 0.736071
vt 0.375000 0.729167
vt 0.375000 0.685837
vt 0.375000 0.736699
vt 0.375000 0.625000
vt 0.375000 0.795192
vt 0.375000 0.795192
vt 0.375000 0.817788
vt 0.375000 0.817788
vt 0.375000 0.840385
vt 0.375000 0.840385
vt 0.375000 0.817788
vt 0.375000 0.840385
vt 0.375000 0.795192
vt 0.284615 0.625000
vt 0.284615 0.625000
vt 0.284615 0.562500
vt 0.284615 0.562500
vt 0.284615 0.500000
vt 0.284615 0.500000
vt 0.284615 0.562500
vt 0.284615 0.500000
vt 0.284615 0.625000
vt 0.284615 0.625000
vt 0.284615 0.562500
vt 0.284615 0.500000
vt 0.284615 0.562500
vt 0.284615 0.500000
vt 0.284615 0.625000
vt 0.375000 0.795192
vt 0.375000 0.817788
vt 0.375000 0.840385
vt 0.375000 0.817789
vt 0.375000 0.840385
vt 0.375000 0.795192
vt 0.375000 0.626736
vt 0.375000 0.686114
vt 0.375000 0.736071
vt 0.375000 0.687500
vt 0.375000 0.729167
vt 0.375000 0.645833
vt 0.375000 0.454808
vt 0.375000 0.478632
vt 0.375000 0.511565
vt 0.375000 0.476462
vt 0.375000 0.492468
vt 0.375000 0.454808
vt 0.284615 0.625000
vt 0.284615 0.562500
vt 0.284615 0.500000
vt 0.375000 0.795820
vt 0.375000 0.817945
vt 0.375000 0.840385
vt 0.375000 0.818730
vt 0.375000 0.802724
vt 0.375000 0.625000
vt 0.375000 0.625000
vt 0.375000 0.687500
vt 0.375000 0.750000
vt 0.375000 0.750000
vt 0.375000 0.750000
vt 0.375000 0.625000
vt 0.375000 0.454808
vt 0.375000 0.477404
vt 0.375000 0.477404
vt 0.375000 0.500000
vt 0.375000 0.500000
vt 0.375000 0.477404
vt 0.375000 0.500000
vt 0.284615 0.625000
vt 0.284615 0.562500
vt 0.284615 0.500000
vt 0.375000 0.802724
vt 0.375000 0.795820
vt 0.375000 0.817945
vt 0.375000 0.818730
vt 0.375000 0.840385
vt 0.375000 0.623264
vt 0.375000 0.685837
vt 0.375000 0.738435
vt 0.375000 0.454808
vt 0.375000 0.479067
vt 0.375000 0.513301
vt 0.375000 0.409615
vt 0.375000 0.409615
vt 0.375000 0.432212
vt 0.375000 0.432212
vt 0.375000 0.771524
vt 0.375000 0.771561
vt 0.375000 0.409615
vt 0.375000 0.409615
vt 0.375000 0.432212
vt 0.375000 0.432212
vt 0.375000 0.432212
vt 0.375000 0.409615
vt 0.375000 0.744792
vt 0.375000 0.771885
vt 0.375000 0.770583
vt 0.375000 0.771211
vt 0.375000 0.409615
vt 0.375000 0.409615
vt 0.375000 0.432212
vt 0.375000 0.432212
vt 0.375000 0.770777
vt 0.375000 0.770934
vt 0.375000 0.771090
vt 0.375000 0.797075
vt 0.375000 0.409615
vt 0.375000 0.432212
vt 0.375000 0.770934
vt 0.375000 0.432212
vt 0.375000 0.409615
vt 0.375000 0.563729
vt 0.375000 0.564163
vt 0.284615 0.750000
vt 0.284615 0.750000
vt 0.284615 0.687500
vt 0.284615 0.687500
vt 0.375000 0.498117
vt 0.375000 0.563054
vt 0.375000 0.563886
vt 0.375000 0.630208
vt 0.375000 0.563886
vt 0.284615 0.750000
vt 0.284615 0.750000
vt 0.284615 0.687500
vt 0.284615 0.687500
vt 0.284615 0.687500
vt 0.284615 0.750000
vt 0.375000 0.564163
vt 0.375000 0.564163
vt 0.284615 0.750000
vt 0.284615 0.750000
vt 0.284615 0.687500
vt 0.284615 0.687500
vt 0.284615 0.750000
vt 0.284615 0.687500
vt 0.375000 0.564163
vt 0.284615 0.687500
vt 0.284615 0.750000
vt 0.375000 0.564163
vn -0.4614 -0.0123 -0.8871
vn -0.4076 -0.0261 -0.9128
vn -0.7373 0.0818 -0.6706
vn -0.7601 0.1123 -0.6401
vn -0.1759 -0.1398 -0.9744
vn -0.0961 -0.1200 -0.9881
vn -0.9326 0.2015 0.2995
vn -0.9367 0.1654 0.3085
vn -0.7210 0.0955 0.6864
vn -0.7391 0.1301 0.6609
vn -0.9754 0.2204 -0.0063
vn -0.9829 0.1839 -0.0076
vn 0.3477 -0.0778 0.9344
vn 0.3925 -0.0630 0.9176
vn 0.7370 -0.0409 0.6746
vn 0.7158 -0.0530 0.6963
vn -0.0041 -0.0486 0.9988
vn 0.0400 -0.0491 0.9980
vn 0.9051 -0.1658 -0.3916
vn 0.9420 -0.0889 -0.3237
vn 0.6602 -0.1923 -0.7260
vn 0.5048 -0.3062 -0.8071
vn 0.9996 -0.0150 -0.0227
vn 0.9998 -0.0173 0.0061
vn -0.0627 -0.0586 -0.9963
vn -0.0649 -0.0545 -0.9964
vn -0.4177 -0.0516 -0.9071
vn -0.4017 -0.0477 -0.9145
vn -0.7088 -0.0652 -0.7024
vn -0.7045 -0.0469 -0.7081
vn -0.4336 -0.0231 -0.9008
vn -0.7186 -0.0412 -0.6942
vn -0.0608 -0.0305 -0.9977
vn -0.9984 -0.0558 -0.0096
vn -0.9958 -0.0906 -0.0094
vn -0.9388 -0.0834 0.3342
vn -0.9278 -0.0781 0.3648
vn -0.7303 -0.0583 0.6806
vn -0.7078 -0.1050 0.6986
vn -0.9628 -0.0617 0.2631
vn -0.7751 -0.0218 0.6314
vn -0.9975 -0.0707 -0.0099
vn -0.0316 -0.1396 0.9897
vn -0.0220 -0.0777 0.9967
vn 0.3621 -0.1164 0.9248
vn 0.3308 -0.1601 0.9300
vn 0.6786 -0.1627 0.7162
vn 0.6638 -0.1790 0.7262
vn 0.4399 -0.0283 0.8976
vn 0.7403 -0.1460 0.6563
vn 0.0140 0.0534 0.9985
vn 0.9853 -0.1707 0.0044
vn 0.9837 -0.1797 0.0032
vn 0.9121 -0.1577 -0.3785
vn 0.9107 -0.1572 -0.3820
vn 0.6562 -0.1193 -0.7451
vn 0.6505 -0.1281 -0.7486
vn 0.9098 -0.1892 -0.3694
vn 0.6761 -0.1438 -0.7227
vn 0.9792 -0.2029 0.0007
vn 0.9985 -0.0548 0.0063
vn 0.9360 -0.0696 -0.3452
vn 0.6809 -0.0860 -0.7273
vn 0.9271 -0.1021 -0.3607
vn 0.6699 -0.0850 -0.7375
vn 0.9939 -0.1102 0.0050
vn 0.0243 -0.0510 0.9984
vn 0.3723 -0.0625 0.9260
vn 0.7083 -0.0629 0.7031
vn 0.3484 -0.1040 0.9315
vn 0.6868 -0.1177 0.7172
vn -0.0021 -0.0843 0.9964
vn -0.9926 0.1210 -0.0083
vn -0.9409 0.1011 0.3233
vn -0.7182 0.0428 0.6945
vn -0.9393 0.0446 0.3403
vn -0.7142 -0.0065 0.6999
vn -0.9977 0.0674 -0.0090
vn -0.0357 -0.0582 -0.9977
vn -0.3758 -0.0197 -0.9265
vn -0.7214 0.0437 -0.6912
vn -0.3778 -0.0210 -0.9257
vn -0.7111 0.0172 -0.7029
vn -0.0394 -0.0430 -0.9983
vn 0.9881 -0.1535 0.0048
vn 0.9178 -0.1416 -0.3710
vn 0.6568 -0.1160 -0.7451
vn -0.0211 -0.1226 0.9922
vn 0.3340 -0.1458 0.9312
vn 0.6717 -0.1635 0.7225
vn -0.9999 0.0063 -0.0096
vn -0.9349 -0.0183 0.3544
vn -0.7102 -0.0598 0.7015
vn -0.0547 -0.0520 -0.9971
vn -0.3888 -0.0325 -0.9207
vn -0.7056 -0.0127 -0.7085
vn 0.9755 -0.2201 0.0002
vn 0.9030 -0.2207 -0.3687
vn 0.6605 -0.1737 -0.7305
vn 0.0455 0.1237 0.9913
vn 0.5008 0.0108 0.8655
vn 0.7615 -0.1449 0.6317
vn -0.9990 -0.0443 -0.0087
vn -0.9688 -0.0598 0.2406
vn -0.8313 -0.0679 0.5516
vn -0.0432 -0.0137 -0.9990
vn -0.4262 0.0024 -0.9046
vn -0.7170 -0.0139 -0.6970
vn 0.3236 -0.0780 -0.9430
vn 0.3113 -0.0738 -0.9474
vn -0.3847 0.0538 0.9215
vn -0.3958 0.0240 0.9180
vn 0.2920 -0.0800 -0.9531
vn 0.3035 -0.0616 -0.9508
vn 0.2923 -0.0878 -0.9523
vn -0.3801 -0.0960 0.9200
vn -0.3655 -0.0551 0.9292
vn -0.3933 -0.1233 0.9111
vn 0.3042 -0.0813 -0.9491
vn 0.2268 -0.1985 -0.9535
vn -0.3483 -0.0190 0.9372
vn -0.3393 0.0046 0.9407
vn -0.3791 -0.0545 0.9237
vn 0.2991 -0.0800 -0.9509
vn -0.3800 0.0271 0.9246
vn 0.1019 -0.2593 -0.9604
vn -0.9181 -0.0337 -0.3950
vn -0.9184 -0.0591 -0.3912
vn 0.9011 -0.2157 0.3762
vn 0.9047 -0.2000 0.3762
vn -0.9292 0.0056 -0.3696
vn -0.9339 0.0559 -0.3533
vn -0.9233 -0.0475 -0.3810
vn 0.9141 -0.1642 0.3707
vn 0.9248 -0.1182 0.3617
vn 0.9067 -0.1813 0.3809
vn -0.9371 0.1016 -0.3339
vn -0.9353 0.1601 -0.3156
vn 0.9357 -0.0562 0.3482
vn 0.9479 -0.0114 0.3184
vn 0.9060 -0.1821 0.3821
vn -0.9182 -0.0781 -0.3882
vn 0.9548 0.0023 0.2973
vn -0.9330 0.1945 -0.3027
usemtl None.003
s 1
f 1/1/1 2/2/2 3/3/3 4/4/4
f 5/5/5 6/6/6 2/2/2 1/1/1
f 7/7/7 8/8/8 9/9/9 10/10/10
f 11/11/11 12/12/12 8/8/8 7/7/7
f 13/13/13 14/14/14 15/15/15 16/16/16
f 17/17/17 18/18/18 14/14/14 13/13/13
f 19/19/19 20/20/20 21/21/21 22/22/22
f 23/23/23 24/24/24 20/20/20 19/19/19
f 25/25/25 26/26/26 27/27/27 28/28/28
f 28/28/28 27/27/27 29/29/29 30/30/30
f 27/27/27 31/31/31 32/32/32 29/29/29
f 26/26/26 33/33/33 31/31/31 27/27/27
f 34/34/34 35/35/35 36/36/36 37/37/37
f 37/37/37 36/36/36 38/38/38 39/39/39
f 36/36/36 40/40/40 41/41/41 38/38/38
f 35/35/35 42/42/42 40/40/40 36/36/36
f 43/43/43 44/44/44 45/45/45 46/46/46
f 46/46/46 45/45/45 47/47/47 48/48/48
f 45/45/45 49/49/49 50/50/50 47/47/47
f 44/44/44 51/51/51 49/49/49 45/45/45
f 52/52/52 53/53/53 54/54/54 55/55/55
f 55/55/55 54/54/54 56/56/56 57/57/57
f 54/54/54 58/58/58 59/59/59 56/56/56
f 53/53/53 60/60/60 58/58/58 54/54/54
f 24/24/24 61/61/61 62/62/62 20/20/20
f 20/20/20 62/62/62 63/63/63 21/21/21
f 62/62/62 64/64/64 65/65/65 63/63/63
f 61/61/61 66/66/66 64/64/64 62/62/62
f 18/18/18 67/67/67 68/68/68 14/14/14
f 14/14/14 68/68/68 69/69/69 15/15/15
f 68/68/68 70/70/70 71/71/71 69/69/69
f 67/67/67 72/72/72 70/70/70 68/68/68
f 12/12/12 73/73/73 74/74/74 8/8/8
f 8/8/8 74/74/74 75/75/75 9/9/9
f 74/74/74 76/76/76 77/77/77 75/75/75
f 73/73/73 78/78/78 76/76/76 74/74/74
f 6/6/6 79/79/79 80/80/80 2/2/2
f 2/2/2 80/80/80 81/81/81 3/3/3
f 80/80/80 82/82/82 83/83/83 81/81/81
f 79/79/79 84/84/84 82/82/82 80/80/80
f 66/66/66 85/85/85 86/86/86 64/64/64
f 64/64/64 86/86/86 87/87/87 65/65/65
f 86/86/86 55/55/55 57/57/57 87/87/87
f 85/85/85 52/52/52 55/55/55 86/86/86
f 72/72/72 88/88/88 89/89/89 70/70/70
f 70/70/70 89/89/89 90/90/90 71/71/71
f 89/89/89 46/91/46 48/48/48 90/90/90
f 88/88/88 43/92/43 46/91/46 89/89/89
f 78/93/78 91/94/91 92/95/92 76/76/76
f 76/76/76 92/95/92 93/96/93 77/97/77
f 92/95/92 37/37/37 39/98/39 93/96/93
f 91/94/91 34/99/34 37/37/37 92/95/92
f 84/84/84 94/100/94 95/101/95 82/102/82
f 82/102/82 95/101/95 96/103/96 83/104/83
f 95/101/95 28/105/28 30/106/30 96/103/96
f 94/100/94 25/25/25 28/105/28 95/101/95
f 60/60/60 97/107/97 98/108/98 58/58/58
f 58/58/58 98/108/98 99/109/99 59/59/59
f 51/110/51 100/111/100 101/112/101 49/113/49
f 49/113/49 101/112/101 102/114/102 50/50/50
f 42/42/42 103/115/103 104/116/104 40/40/40
f 40/40/40 104/116/104 105/117/105 41/41/41
f 33/33/33 106/118/106 107/119/107 31/31/31
f 31/31/31 107/119/107 108/120/108 32/32/32
f 59/121/59 99/122/99 109/123/109 110/124/110
f 110/124/110 109/123/109 106/118/106 33/33/33
f 41/41/41 105/117/105 111/125/111 112/126/112
f 112/126/112 111/125/111 100/111/100 51/110/51
f 65/127/65 87/128/87 113/129/113 114/130/114
f 114/130/114 113/129/113 94/100/94 84/84/84
f 113/129/113 115/131/115 25/25/25 94/100/94
f 87/128/87 57/132/57 115/131/115 113/129/113
f 77/77/77 93/133/93 116/134/116 117/135/117
f 117/135/117 116/134/116 88/88/88 72/72/72
f 116/134/116 118/136/118 43/92/43 88/88/88
f 93/133/93 39/39/39 118/136/118 116/134/116
f 21/137/21 63/138/63 119/139/119 120/140/120
f 120/140/120 119/139/119 79/79/79 6/6/6
f 119/139/119 114/130/114 84/84/84 79/79/79
f 63/138/63 65/127/65 114/130/114 119/139/119
f 9/9/9 75/75/75 121/141/121 122/142/122
f 122/142/122 121/141/121 67/67/67 18/18/18
f 121/141/121 117/135/117 72/72/72 67/67/67
f 75/75/75 77/77/77 117/135/117 121/141/121
f 39/39/39 38/38/38 123/143/123 118/136/118
f 118/136/118 123/143/123 44/144/44 43/92/43
f 123/143/123 112/126/112 51/110/51 44/144/44
f 38/38/38 41/41/41 112/126/112 123/143/123
f 57/132/57 56/145/56 124/146/124 115/131/115
f 115/131/115 124/146/124 26/26/26 25/25/25
f 124/146/124 110/124/110 33/33/33 26/26/26
f 56/145/56 59/121/59 110/124/110 124/146/124
f 125/147/125 122/142/122 18/18/18 17/17/17
f 10/10/10 9/9/9 122/142/122 125/147/125
f 126/148/126 120/140/120 6/6/6 5/5/5
f 22/149/22 21/137/21 120/140/120 126/148/126
f 32/32/32 108/120/108 127/150/127 128/151/128
f 128/151/128 127/150/127 103/115/103 42/42/42
f 50/152/50 102/153/102 129/154/129 130/155/130
f 130/155/130 129/154/129 97/107/97 60/60/60
f 83/83/83 96/156/96 131/157/131 132/158/132
f 132/158/132 131/157/131 91/159/91 78/78/78
f 131/157/131 133/160/133 34/34/34 91/159/91
f 96/156/96 30/30/30 133/160/133 131/157/131
f 71/161/71 90/162/90 134/163/134 135/164/135
f 135/164/135 134/163/134 85/85/85 66/66/66
f 134/163/134 136/165/136 52/52/52 85/85/85
f 90/162/90 48/166/48 136/165/136 134/163/134
f 3/3/3 81/81/81 137/167/137 138/168/138
f 138/168/138 137/167/137 73/73/73 12/12/12
f 137/167/137 132/158/132 78/78/78 73/73/73
f 81/81/81 83/83/83 132/158/132 137/167/137
f 15/169/15 69/170/69 139/171/139 140/172/140
f 140/172/140 139/171/139 61/61/61 24/24/24
f 139/171/139 135/164/135 66/66/66 61/61/61
f 69/170/69 71/161/71 135/164/135 139/171/139
f 48/166/48 47/173/47 141/174/141 136/165/136
f 136/165/136 141/174/141 53/53/53 52/52/52
f 141/174/141 130/155/130 60/60/60 53/53/53
f 47/173/47 50/152/50 130/155/130 141/174/141
f 30/30/30 29/29/29 142/175/142 133/160/133
f 133/160/133 142/175/142 35/35/35 34/34/34
f 142/175/142 128/151/128 42/42/42 35/35/35
f 29/29/29 32/32/32 128/151/128 142/175/142
f 143/176/143 140/172/140 24/24/24 23/23/23
f 16/177/16 15/169/15 140/172/140 143/176/143
f 144/178/144 138/168/138 12/12/12 11/11/11
f 4/4/4 3/3/3 138/168/138 144/178/144
